<svg width="50" height="50" viewBox="0 0 50 50" fill="none" xmlns="http://www.w3.org/2000/svg">
<circle cx="25" cy="25" r="24" stroke="#FFC700" stroke-width="2"/>
<path d="M14.168 31.6178H36.907V13.291H14.168V31.6178ZM15.2016 14.4364H35.8734V30.4723H15.2016V14.4364Z" fill="#FFC700"/>
<path d="M38.9742 32.7637V12.65C38.9716 12.4285 38.9292 12.2097 38.8496 12.0064C38.7699 11.8031 38.6546 11.6194 38.5104 11.4659C38.3661 11.3125 38.1958 11.1923 38.0093 11.1124C37.8227 11.0325 37.6237 10.9945 37.4238 11.0006H13.6512C13.4513 10.9945 13.2523 11.0325 13.0658 11.1124C12.8792 11.1923 12.7089 11.3125 12.5647 11.4659C12.4204 11.6194 12.3051 11.8031 12.2255 12.0064C12.1458 12.2097 12.1035 12.4285 12.1008 12.65V32.7637H9.00002V33.2677C8.99717 34.0345 9.26655 34.7718 9.75 35.3204C10.2335 35.869 10.8922 36.185 11.584 36.2H39.491C40.1829 36.185 40.8416 35.869 41.325 35.3204C41.8085 34.7718 42.0779 34.0345 42.075 33.2677V32.7637H38.9742ZM13.1344 12.65C13.1369 12.5788 13.1525 12.5088 13.1802 12.4444C13.2079 12.38 13.2471 12.3225 13.2954 12.2754C13.3437 12.2283 13.4001 12.1925 13.4613 12.1703C13.5225 12.148 13.5871 12.1398 13.6512 12.1461H37.4238C37.488 12.1398 37.5526 12.148 37.6137 12.1703C37.6749 12.1925 37.7313 12.2283 37.7797 12.2754C37.828 12.3225 37.8672 12.38 37.8948 12.4444C37.9225 12.5088 37.9381 12.5788 37.9406 12.65V32.7637H13.1344V12.65ZM11.584 35.0546C11.2686 35.0343 10.9647 34.9161 10.707 34.7136C10.4493 34.5111 10.2482 34.2323 10.1266 33.9091H23.4703V35.0546H11.584ZM39.491 35.0546H27.6047V33.9091H40.9484C40.8268 34.2323 40.6257 34.5111 40.368 34.7136C40.1103 34.9161 39.8064 35.0343 39.491 35.0546Z" fill="#FFC700"/>
</svg>
