<svg width="50" height="50" viewBox="0 0 50 50" fill="none" xmlns="http://www.w3.org/2000/svg">
<circle cx="25" cy="25" r="24" stroke="#FFC700" stroke-width="2"/>
<path d="M20.3091 40.7999C21.5743 40.7999 22.6 39.7254 22.6 38.3999C22.6 37.0745 21.5743 35.9999 20.3091 35.9999C19.0439 35.9999 18.0182 37.0745 18.0182 38.3999C18.0182 39.7254 19.0439 40.7999 20.3091 40.7999Z" fill="#FFC700"/>
<path d="M39.0274 15.752C38.7356 15.4016 38.3156 15.2 37.8727 15.2H16.7673L16.4695 13.3376C16.3473 12.5664 15.7105 12 14.9636 12H11.5273C10.6827 12 10 12.7152 10 13.6C10 14.4848 10.6827 15.2 11.5273 15.2H13.67L16.5108 33.0624C16.523 33.1344 16.5581 33.1936 16.5795 33.2608C16.6039 33.3456 16.6238 33.4256 16.662 33.5024C16.7108 33.608 16.7765 33.6976 16.8452 33.7888C16.8926 33.8512 16.9353 33.9136 16.9903 33.968C17.0789 34.0544 17.1812 34.1152 17.2851 34.176C17.3431 34.2096 17.3935 34.2544 17.4561 34.28C17.6333 34.3552 17.8196 34.4 18.0167 34.4C18.0182 34.4 34.8182 34.4 34.8182 34.4C35.6628 34.4 36.3455 33.6848 36.3455 32.8C36.3455 31.9152 35.6628 31.2 34.8182 31.2H19.3118L19.0583 29.6H36.3455C37.106 29.6 37.7505 29.0144 37.8575 28.2272L39.3847 17.0272C39.4473 16.5664 39.316 16.1008 39.0274 15.752ZM36.1118 18.4L35.6765 21.6H30.2364V18.4H36.1118ZM28.7091 18.4V21.6H24.1273V18.4H28.7091ZM28.7091 23.2V26.4H24.1273V23.2H28.7091ZM22.6 18.4V21.6H18.0182C17.9372 21.6 17.8639 21.624 17.7921 21.648L17.2759 18.4H22.6ZM18.0396 23.2H22.6V26.4H18.5481L18.0396 23.2ZM30.2364 26.4V23.2H35.4566L35.0213 26.4H30.2364Z" fill="#FFC700"/>
<path d="M34.0546 40.7999C35.3198 40.7999 36.3455 39.7254 36.3455 38.3999C36.3455 37.0745 35.3198 35.9999 34.0546 35.9999C32.7893 35.9999 31.7636 37.0745 31.7636 38.3999C31.7636 39.7254 32.7893 40.7999 34.0546 40.7999Z" fill="#FFC700"/>
</svg>
