<svg width="50" height="50" viewBox="0 0 50 50" fill="none" xmlns="http://www.w3.org/2000/svg">
<circle cx="25" cy="25" r="24" stroke="#FFC700" stroke-width="2"/>
<path d="M17.9997 22.5501V17.6C17.9997 13.9617 21.5869 11 25.9987 11C30.4093 11 33.9978 13.9617 33.9978 17.6V22.5501C36.2068 22.5501 37.9975 24.0277 37.9975 25.8499V34.0999C37.9975 35.9226 36.2068 37.4 33.9978 37.4H17.9997C15.7912 37.4 14 35.9226 14 34.0999V25.8499C13.9999 24.0277 15.7912 22.5501 17.9997 22.5501ZM24.9988 30.5469V33.2749C24.9988 33.731 25.4459 34.0999 25.9987 34.0999C26.5514 34.0999 26.9986 33.731 26.9986 33.2749V30.5469C27.5855 30.2602 27.9984 29.7541 27.9984 29.15C27.9984 28.2379 27.103 27.5 25.9987 27.5C24.8945 27.5 23.9989 28.2379 23.9989 29.15C23.9989 29.7541 24.4122 30.2602 24.9988 30.5469ZM21.9993 22.5501H29.9983V17.6C29.9983 15.7792 28.2046 14.3 25.9987 14.3C23.7939 14.3 21.9994 15.7792 21.9994 17.6V22.5501H21.9993Z" fill="#FFC700"/>
</svg>
