<svg width="124" height="31" viewBox="0 0 124 31" fill="none" xmlns="http://www.w3.org/2000/svg">
<g clip-path="url(#clip0)">
<path d="M12.516 1.80067C12.554 2.11796 12.5865 2.34007 12.6028 2.45906C12.625 2.62088 12.6341 2.78595 12.6299 2.95087C12.633 3.55126 12.5382 4.14408 12.3534 4.68014C12.1965 5.17422 11.9285 5.57462 11.5942 5.81448C11.3336 5.3068 11.0165 4.867 10.656 4.51356C10.2748 4.14345 9.86531 3.83995 9.43584 3.60926C8.99028 3.37623 8.53102 3.20363 8.06385 3.09365C7.60668 2.98422 7.14426 2.92851 6.68101 2.92707C6.2594 2.92218 5.83834 2.97262 5.4229 3.07779C5.0689 3.16694 4.72191 3.30779 4.38712 3.49821C4.12183 3.6437 3.87997 3.86786 3.67672 4.1566C3.59472 4.27479 3.52951 4.41553 3.48484 4.57073C3.44016 4.72592 3.41691 4.89251 3.41643 5.0609C3.49187 5.55614 3.68379 5.99691 3.95872 6.30629C4.30663 6.77432 4.6864 7.18897 5.0921 7.54376C5.53678 7.94831 6.03568 8.337 6.57797 8.73362C7.12026 9.13024 7.66255 9.52687 8.20484 9.86003C8.85559 10.3122 9.41957 10.7247 9.89136 11.1134C10.3214 11.4489 10.7159 11.8737 11.0627 12.3746C11.366 12.8282 11.6023 13.3682 11.7568 13.9611C11.8982 14.6334 11.957 15.3371 11.9304 16.0394C11.935 16.9547 11.8247 17.8635 11.605 18.7206C11.396 19.5341 11.0727 20.2745 10.656 20.8941C10.2265 21.5234 9.71343 22.0175 9.14843 22.3457C8.5169 22.6993 7.84522 22.8743 7.16907 22.8613C6.39562 22.8437 5.62676 22.6838 4.88061 22.3854C4.07146 22.0819 3.28899 21.6427 2.54876 21.0765C1.87978 20.5904 1.26976 19.9473 0.742937 19.1727C0.520171 18.8832 0.339574 18.531 0.211928 18.1371C0.0842815 17.7432 0.0122044 17.3158 0 16.8802C0.0183793 16.3893 0.0935588 15.9065 0.222339 15.4524C0.408943 14.7752 0.679167 14.1541 1.0195 13.62C1.10239 14.3511 1.31144 15.0391 1.62687 15.619C2.08667 16.4929 2.66443 17.2193 3.32424 17.7528C4.0028 18.3326 4.73271 18.7731 5.4934 19.0617C6.17927 19.3195 6.88392 19.4554 7.59206 19.4662C8.18771 19.4946 8.78175 19.3601 9.34365 19.0696C9.73252 18.8604 10.0898 18.5424 10.3957 18.1336C10.6302 17.8263 10.8154 17.4471 10.938 17.023C11.0257 16.7384 11.0841 16.4363 11.1115 16.1267C11.0886 15.7136 10.9633 15.3271 10.759 15.0399C10.4902 14.6449 10.1855 14.3059 9.8534 14.0325C9.47922 13.7073 9.03997 13.3741 8.54106 13.033C8.04216 12.6919 7.52156 12.3587 6.98469 12.0256C6.1821 11.502 5.48255 11.0102 4.9023 10.5502C4.39019 10.159 3.90839 9.68827 3.46523 9.14611C3.11968 8.73409 2.83703 8.22065 2.63553 7.63895C2.45802 7.07772 2.37083 6.46443 2.38065 5.84621C2.38457 4.78066 2.61169 3.74247 3.0314 2.87155C3.50261 1.89345 4.16667 1.14902 4.93484 0.737718C5.35428 0.469723 5.79524 0.280483 6.24718 0.174514C6.70058 0.0626899 7.15938 0.00433067 7.61917 0C8.45731 0.00126684 9.2913 0.172112 10.0974 0.507677C10.9231 0.856402 11.7312 1.28843 12.516 1.80067V1.80067Z" fill="#FED136"/>
<path d="M14.0561 9.97108C13.9626 9.75504 13.9033 9.5111 13.8826 9.25716C13.8331 8.94752 13.8058 8.63114 13.8013 8.3132C14.1185 8.39021 14.4395 8.43 14.7611 8.43219H15.6071C15.8023 7.87692 16.0084 7.32165 16.2307 6.77431C16.453 6.22697 16.6754 5.72722 16.8869 5.27508C17.0702 4.87704 17.2675 4.49313 17.478 4.12487C17.6042 3.895 17.75 3.68973 17.9118 3.51407C18.0763 3.52046 18.2399 3.55237 18.3999 3.60926C18.6005 3.68065 18.8012 3.75998 19.0072 3.8631C19.2133 3.96622 19.3977 4.07728 19.5495 4.18833C19.6776 4.26454 19.7938 4.37787 19.8912 4.52149C19.5061 5.23541 19.1808 5.88587 18.9042 6.48874C18.6276 7.09161 18.3294 7.78966 18.0094 8.56704H18.7903C19.057 8.56773 19.3233 8.54122 19.5875 8.48772C19.6539 8.58758 19.7056 8.70639 19.7393 8.83675C19.7778 8.97539 19.798 9.12341 19.799 9.27303C19.0649 9.65399 18.2892 9.83415 17.5105 9.8045C17.1906 10.7088 16.9086 11.6052 16.6591 12.4936C16.4097 13.382 16.1982 14.2467 16.0246 15.0716C15.8604 15.8371 15.7264 16.6158 15.6233 17.4038C15.5318 18.0539 15.4827 18.7153 15.4769 19.379C15.4769 20.2039 15.6884 20.664 16.1114 20.7592C16.4833 20.6845 16.8476 20.5433 17.196 20.3388C17.5284 20.1426 17.8391 19.8752 18.1179 19.5456C18.1813 19.6734 18.2257 19.8193 18.248 19.9739C18.1369 20.1925 18.0055 20.3874 17.8576 20.553C17.6636 20.7888 17.4609 21.0086 17.2502 21.2114C17.047 21.4137 16.8351 21.5965 16.6157 21.7587C16.4715 21.8743 16.3161 21.9572 16.1548 22.0046C15.8258 22.0007 15.5002 21.9065 15.1949 21.727C14.8849 21.5458 14.5916 21.3087 14.3218 21.021C14.0733 20.7621 13.8569 20.4428 13.6819 20.077C13.5261 19.7837 13.4387 19.4251 13.4325 19.0537C13.439 18.4835 13.4808 17.9154 13.5572 17.3562C13.6386 16.6661 13.7579 15.9284 13.9097 15.1192C14.0616 14.3101 14.2459 13.4693 14.452 12.5888C14.6581 11.7083 14.8804 10.8357 15.1244 9.97108H14.0561Z" fill="#FED136"/>
<path d="M26.3011 9.38408C26.4532 9.38892 26.6044 9.42088 26.7512 9.47927C26.9136 9.54197 27.0715 9.62696 27.223 9.73311C27.3483 9.82215 27.4666 9.93122 27.5755 10.0583C27.6731 10.1694 27.7219 10.2725 27.7219 10.3677C27.467 11.1609 27.2284 11.9542 27.0115 12.7474C26.7946 13.5407 26.6102 14.3339 26.4692 15.0399C26.3263 15.7122 26.2087 16.3954 26.1167 17.0865C26.041 17.6325 25.9993 18.1874 25.992 18.7444C25.9841 19.184 26.0225 19.6228 26.1059 20.0453C26.1637 20.3571 26.3016 20.6243 26.4909 20.7909C26.3071 20.9597 26.1056 21.083 25.8944 21.1558C25.6826 21.2442 25.4638 21.2922 25.2436 21.2986C24.5495 21.2986 24.2079 20.6085 24.2079 19.2203C24.2775 17.7065 24.5271 16.222 24.9454 14.8337C24.6951 15.6605 24.3995 16.4563 24.0614 17.2134C23.7559 17.9137 23.4171 18.5817 23.0474 19.2124C22.7323 19.7716 22.3717 20.2724 21.9736 20.7037C21.6848 21.0193 21.3542 21.2435 21.0029 21.3621C20.7713 21.3631 20.5435 21.2758 20.3419 21.1089C20.1403 20.942 19.9719 20.7012 19.8533 20.4102C19.5426 19.7019 19.3874 18.8715 19.4086 18.0304C19.4201 16.8903 19.5764 15.7633 19.8695 14.7068C20.1709 13.5583 20.568 12.4686 21.0517 11.4624C21.4923 10.5319 22.0178 9.6939 22.6135 8.97159C23.0592 8.3692 23.6345 8.01295 24.2404 7.96417C24.3964 8.04371 24.5428 8.15883 24.6742 8.30527C24.8393 8.48082 24.9936 8.67724 25.1352 8.89227C25.2742 9.10211 25.3994 9.3305 25.5094 9.57446C25.5952 9.7556 25.6543 9.96092 25.6829 10.1773C25.1068 10.3109 24.5635 10.6577 24.1048 11.1847C23.5438 11.8249 23.0456 12.5749 22.6244 13.4138C22.1862 14.2733 21.8219 15.2084 21.5398 16.1981C21.2753 17.0738 21.1315 18.0173 21.1168 18.9744C21.104 19.1149 21.1238 19.2577 21.1729 19.3799C21.2221 19.5021 21.2978 19.5967 21.388 19.6487C21.9027 19.3831 22.3506 18.8965 22.6732 18.2526C23.3357 17.0708 23.9272 15.8075 24.441 14.4767L24.8695 13.3582C25.0321 12.9457 25.1948 12.5095 25.3629 12.0652L25.851 10.7009C26.03 10.2566 26.1601 9.81243 26.3011 9.38408Z" fill="#FED136"/>
<path d="M28.2424 20.1643C28.3021 19.6249 28.416 18.9109 28.5787 18.0225C28.7413 17.1341 28.9257 16.1822 29.1209 15.1827C29.3162 14.1832 29.571 13.1758 29.8096 12.1604C30.0483 11.1451 30.2923 10.2408 30.52 9.43961C30.6507 8.97301 30.7992 8.5175 30.9647 8.07523C31.0794 7.78287 31.2218 7.51579 31.3877 7.28198C31.5721 7.32449 31.7536 7.39086 31.93 7.48029C32.1163 7.57116 32.2975 7.68253 32.4723 7.81346C32.6378 7.93621 32.7989 8.07124 32.9549 8.21801C33.0754 8.33381 33.1848 8.47252 33.2803 8.6305C32.92 9.25502 32.614 9.94245 32.3693 10.6771C32.0721 11.6116 31.8219 12.5766 31.6209 13.5645C32.3078 12.6655 32.9188 11.8035 33.4538 10.9785C34.0017 10.1244 34.4987 9.20351 34.9397 8.22594C35.0605 8.12072 35.2009 8.07356 35.341 8.09109C35.5255 8.08483 35.7093 8.12784 35.8833 8.21801C36.0235 8.27072 36.1465 8.39437 36.2304 8.56704C36.0041 9.4169 35.8865 10.3203 35.8833 11.2323C35.8552 11.8722 35.9412 12.5118 36.1327 13.0885C36.0743 13.3247 35.986 13.5427 35.8725 13.7311C35.7083 14.0505 35.5269 14.3502 35.3302 14.6274C34.9769 14.3644 34.6619 14.0034 34.4028 13.5645C34.1414 13.124 33.939 12.6154 33.8063 12.0652C33.2654 12.6129 32.7525 13.2173 32.2716 13.8738C31.8514 14.4555 31.4866 15.1171 31.1871 15.8411C30.8676 16.6239 30.6093 17.4567 30.417 18.3239C30.2109 19.26 30.0049 20.3785 29.8151 21.6714C29.6732 21.635 29.5348 21.5737 29.4029 21.489C29.2355 21.3807 29.0741 21.2534 28.9203 21.1082C28.7691 20.9663 28.6259 20.8072 28.4919 20.6323C28.3853 20.5063 28.3 20.3462 28.2424 20.1643V20.1643Z" fill="#FED136"/>
<path d="M37.5699 9.97108C37.4787 9.75339 37.4196 9.51022 37.3963 9.25716C37.351 8.94666 37.3256 8.63063 37.3204 8.3132C37.6377 8.39021 37.9587 8.43 38.2803 8.43219H39.1263C39.3161 7.87692 39.5276 7.32165 39.7499 6.77431C39.9722 6.22697 40.1891 5.72722 40.4006 5.27508C40.5857 4.87678 40.7848 4.49286 40.9972 4.12487C41.1219 3.8931 41.2679 3.68757 41.431 3.51407C41.5955 3.52143 41.759 3.55333 41.9191 3.60926C42.1197 3.68065 42.3203 3.75998 42.5264 3.8631C42.7325 3.96622 42.9169 4.07728 43.0687 4.18833C43.199 4.26278 43.3172 4.37626 43.4158 4.52149C43.0307 5.23541 42.6999 5.88587 42.4288 6.48874C42.1577 7.09161 41.854 7.78966 41.534 8.56704H42.2987C42.5653 8.56828 42.8317 8.54177 43.0958 8.48772C43.1657 8.58505 43.2195 8.70442 43.2531 8.83675C43.2898 8.97587 43.3082 9.1239 43.3073 9.27303C42.5752 9.65461 41.8012 9.8348 41.0243 9.8045C40.7043 10.7088 40.4169 11.6052 40.1675 12.4936C39.918 13.382 39.7282 14.2467 39.5872 15.0716C39.4238 15.8381 39.2881 16.6165 39.1805 17.4038C39.0933 18.0547 39.0461 18.7157 39.0395 19.379C39.0395 20.2039 39.251 20.664 39.674 20.7592C40.046 20.6851 40.4103 20.5439 40.7586 20.3388C41.0922 20.1462 41.4033 19.8786 41.6804 19.5456C41.7451 19.6733 41.7913 19.8191 41.816 19.9739C41.7042 20.1943 41.5708 20.3894 41.4201 20.553C41.2281 20.7888 41.0271 21.0086 40.8182 21.2114C40.615 21.4137 40.4031 21.5965 40.1837 21.7587C40.0391 21.8732 39.8838 21.9561 39.7228 22.0046C39.3938 22.0007 39.0682 21.9065 38.7629 21.727C38.4524 21.5475 38.1589 21.3103 37.8898 21.021C37.6413 20.7621 37.4248 20.4428 37.2499 20.077C37.0925 19.7844 37.0032 19.4259 36.9951 19.0537C37.0045 18.4838 37.0462 17.916 37.1198 17.3562C37.2065 16.6661 37.3259 15.9284 37.4777 15.1192C37.6295 14.3101 37.8085 13.4693 38.02 12.5888C38.2315 11.7083 38.4484 10.8357 38.6924 9.97108H37.5699Z" fill="#FED136"/>
<path d="M61.0673 5.25128C61.0785 6.36194 60.8509 7.44968 60.4165 8.3608C59.9496 9.3064 59.3388 10.0803 58.6324 10.6215C59.1023 11.0844 59.4982 11.6906 59.7929 12.3984C60.0809 13.1001 60.231 13.9043 60.2267 14.7226C60.2139 15.7851 59.9979 16.8211 59.6031 17.7132C59.1635 18.7264 58.5989 19.6114 57.9383 20.3229C57.2184 21.1035 56.4235 21.7237 55.5793 22.1633C54.7105 22.6267 53.7927 22.863 52.8679 22.8613C51.9627 22.899 51.064 22.6273 50.2432 22.0681C49.5147 21.5384 48.9064 20.712 48.4916 19.6883C48.6145 19.1278 48.7826 18.4297 48.9959 17.5942C49.2074 16.8009 49.4406 15.8808 49.7009 14.9606C49.9612 14.0404 50.2432 13.1123 50.4764 12.1922C50.7095 11.272 50.9861 10.447 51.2139 9.71725C51.7019 8.13076 52.1358 6.80604 52.5208 5.75102C52.839 4.87955 53.2016 4.04429 53.6054 3.2523C52.9488 3.54492 52.3073 3.90543 51.6857 4.33112C51.2255 4.62551 50.7978 5.01851 50.4167 5.49719C50.2821 5.35852 50.1632 5.1899 50.0642 4.99744C49.9368 4.76102 49.8208 4.51186 49.7172 4.25179C49.6094 3.987 49.5186 3.70817 49.446 3.41888C49.3832 3.17624 49.3413 2.9231 49.3213 2.6653C49.7272 2.27285 50.162 1.94824 50.6174 1.69754C51.1841 1.37331 51.7658 1.10823 52.3581 0.904299C52.9928 0.67431 53.6354 0.494249 54.2832 0.364892C54.9106 0.241276 55.5428 0.177681 56.1758 0.174514C57.446 0.0676907 58.7077 0.538765 59.7875 1.52303C60.1989 1.93554 60.532 2.49389 60.7558 3.14589C60.9797 3.79789 61.0868 4.52226 61.0673 5.25128ZM53.7572 11.978C53.499 11.7822 53.2703 11.5124 53.0848 11.1847C52.7865 12.1366 52.5099 13.0727 52.2496 13.9928C51.9893 14.913 51.7507 15.7618 51.5447 16.5471C51.3386 17.3324 51.1759 18.0225 51.0458 18.6016C50.9463 19.0267 50.8754 19.4651 50.8343 19.9104C51.0355 20.0724 51.2535 20.1849 51.4796 20.2436C51.7868 20.3309 52.0994 20.3708 52.4123 20.3626C53.2576 20.3666 54.0985 20.1847 54.9069 19.8232C55.6544 19.4885 56.361 18.9825 57.0001 18.324C57.5655 17.7654 58.0532 17.0547 58.4372 16.2298C58.7836 15.5061 58.9727 14.6462 58.9795 13.7628C59.0009 13.21 58.9091 12.6603 58.716 12.1842C58.5228 11.708 58.2369 11.3269 57.8949 11.0896C56.8204 11.7132 55.6723 12.0205 54.5164 11.9939H54.1043C53.9885 12.0029 53.8724 11.9976 53.7572 11.978V11.978ZM57.4827 2.22108C57.1983 2.22249 56.9141 2.24632 56.6313 2.29248C56.3277 2.34007 56.0131 2.41146 55.6823 2.50665C55.7314 2.57689 55.7734 2.65702 55.8071 2.74463C55.8071 2.82395 55.8667 2.91121 55.8938 3.0064C55.7377 3.31985 55.5964 3.64848 55.4708 3.99002C55.3027 4.42631 55.1184 4.92605 54.9286 5.49719C54.7388 6.06832 54.511 6.69498 54.2832 7.39304C54.0555 8.09109 53.8331 8.79708 53.6054 9.52687C53.8679 9.43954 54.1343 9.37858 54.4025 9.34442C54.7106 9.29712 55.0201 9.27329 55.3298 9.27303C55.498 9.27303 55.6606 9.27303 55.8233 9.27303C55.986 9.27303 56.1379 9.32062 56.2897 9.36029C56.859 9.22739 57.417 9.00669 57.9545 8.70189C58.4063 8.44159 58.8344 8.10055 59.2289 7.68654C59.5513 7.34867 59.8242 6.91983 60.0315 6.42528C60.2209 5.98026 60.3205 5.46609 60.3189 4.94191C60.3324 4.53835 60.2721 4.13682 60.1444 3.77856C60.0167 3.42029 59.8261 3.11819 59.5922 2.90327C58.9467 2.39098 58.2157 2.15459 57.4827 2.22108V2.22108Z" fill="#FED136"/>
<path d="M63.7353 21.7111C63.3932 21.6695 63.0609 21.5229 62.76 21.281C62.4592 21.0391 62.1965 20.7073 61.9891 20.3071C61.5323 19.3881 61.3028 18.2691 61.3384 17.1341C61.3419 16.3452 61.4185 15.5607 61.5661 14.8019C61.7235 13.9754 61.9436 13.1772 62.2223 12.4222C62.5049 11.6587 62.8392 10.9385 63.2201 10.2725C63.5864 9.62187 64.0052 9.03855 64.4674 8.53531C65.0247 7.84878 65.7193 7.44519 66.4467 7.38511C66.9638 7.87954 67.3813 8.56687 67.6561 9.37615H67.8296H67.9977C68.681 9.37615 69.0172 10.2567 69.0172 12.0177C69.0227 13.1617 68.8886 14.2979 68.6213 15.3731C68.3709 16.4138 68.0044 17.3868 67.5368 18.2526C67.0696 19.1144 66.5046 19.8523 65.8665 20.434C65.2113 21.0351 64.4905 21.4671 63.7353 21.7111ZM64.7168 12.8664C64.4909 13.3134 64.2861 13.7825 64.1041 14.2705C63.9148 14.7641 63.7481 15.2755 63.6051 15.8014C63.4713 16.2832 63.3625 16.7791 63.2798 17.2848C63.2048 17.7046 63.1647 18.136 63.1605 18.5699C63.1602 19.0085 63.2135 19.4436 63.3177 19.8549C63.4153 20.2674 63.5346 20.5054 63.6594 20.5609C64.2321 20.3762 64.7717 20.0167 65.2429 19.5059C65.7333 18.977 66.1572 18.3274 66.4956 17.5862C66.8561 16.7771 67.1338 15.8952 67.3198 14.9685C67.5213 13.9558 67.6217 12.9058 67.6181 11.8511C67.6226 11.4658 67.6026 11.0807 67.5584 10.7009C67.5251 10.4431 67.4609 10.196 67.3686 9.97109C66.814 10.2184 66.3006 10.6317 65.8611 11.1848C65.4392 11.6831 65.0555 12.247 64.7168 12.8664V12.8664Z" fill="#FED136"/>
<path d="M72.2059 21.7111C71.8635 21.6714 71.5307 21.5257 71.2296 21.2837C70.9286 21.0416 70.6662 20.7087 70.4597 20.3071C69.9986 19.3909 69.7669 18.2705 69.8036 17.1341C69.8062 16.3446 69.8847 15.5595 70.0368 14.8019C70.1898 13.9745 70.4082 13.1758 70.6875 12.4222C70.9701 11.6587 71.3044 10.9385 71.6853 10.2725C72.0529 9.62374 72.4716 9.04064 72.9326 8.53531C73.4903 7.84977 74.1846 7.44632 74.9119 7.38511C75.4302 7.87746 75.848 8.56534 76.1212 9.37615H76.2948H76.4683C77.1462 9.37615 77.4824 10.2567 77.4824 12.0177C77.487 13.1609 77.3548 14.2965 77.0919 15.3731C76.8391 16.4123 76.4729 17.3847 76.0074 18.2526C75.5403 19.1144 74.9753 19.8523 74.3371 20.434C73.6823 21.0359 72.9613 21.468 72.2059 21.7111V21.7111ZM73.2092 12.8664C72.9832 13.3134 72.7784 13.7825 72.5964 14.2705C72.4093 14.7657 72.2427 15.277 72.0975 15.8014C71.9636 16.2832 71.8548 16.7791 71.7721 17.2848C71.6997 17.7053 71.6597 18.1363 71.6528 18.5699C71.6526 19.0085 71.7058 19.4436 71.81 19.8549C71.9131 20.2674 72.027 20.5054 72.1571 20.5609C72.7291 20.3731 73.2683 20.0139 73.7406 19.5059C74.2281 18.9746 74.6499 18.3254 74.9879 17.5862C75.3505 16.7789 75.6284 15.8965 75.8121 14.9685C76.0162 13.9566 76.1167 12.9061 76.1104 11.8511C76.1149 11.4658 76.095 11.0807 76.0508 10.7009C76.0174 10.4431 75.9532 10.196 75.8609 9.97109C75.2967 10.2133 74.7738 10.6268 74.3263 11.1848C73.9151 11.6873 73.5408 12.2509 73.2092 12.8664V12.8664Z" fill="#FED136"/>
<path d="M79.3478 9.97108C79.2543 9.75504 79.195 9.5111 79.1743 9.25716C79.1262 8.94733 79.1008 8.6309 79.0984 8.3132C79.4156 8.39086 79.7366 8.43065 80.0582 8.43219H80.8988C81.094 7.87692 81.3001 7.32165 81.5224 6.77431C81.7447 6.22697 81.9671 5.72722 82.1786 5.27508C82.3619 4.87493 82.561 4.49087 82.7751 4.12487C82.8983 3.89377 83.0424 3.68829 83.2035 3.51407C83.3698 3.52089 83.5352 3.55279 83.697 3.60926C83.8922 3.68065 84.0929 3.75998 84.2989 3.8631C84.505 3.96622 84.6894 4.07728 84.8412 4.18833C84.97 4.26248 85.0865 4.37608 85.1829 4.52149C84.8033 5.23541 84.4725 5.88587 84.1959 6.48874C83.9193 7.09161 83.6211 7.78966 83.3065 8.56704H84.082C84.3487 8.56773 84.615 8.54122 84.8792 8.48772C84.9474 8.58552 84.9993 8.70493 85.031 8.83675C85.0695 8.97539 85.0897 9.12341 85.0907 9.27303C84.3567 9.65469 83.5809 9.83487 82.8022 9.8045C82.4823 10.7088 82.2003 11.6052 81.9508 12.4936C81.7014 13.382 81.4899 14.2467 81.3163 15.0716C81.1521 15.8371 81.0181 16.6158 80.915 17.4038C80.8234 18.0539 80.7744 18.7153 80.7686 19.379C80.7686 20.2039 80.9801 20.664 81.4031 20.7592C81.775 20.6845 82.1393 20.5433 82.4877 20.3388C82.8207 20.1444 83.1316 19.8769 83.4096 19.5456C83.472 19.6752 83.518 19.8203 83.5451 19.9739C83.4303 20.1904 83.2973 20.3849 83.1493 20.553C82.9563 20.7906 82.7535 21.0105 82.5419 21.2114C82.3398 21.4119 82.1298 21.5947 81.9129 21.7587C81.7683 21.8732 81.6129 21.9561 81.4519 22.0046C81.1229 22.0007 80.7973 21.9065 80.492 21.727C80.1815 21.5475 79.888 21.3103 79.619 21.021C79.3689 20.7619 79.1507 20.4428 78.9736 20.077C78.8178 19.7837 78.7304 19.4251 78.7242 19.0537C78.7336 18.4838 78.7753 17.916 78.8489 17.3562C78.9303 16.6661 79.0496 15.9284 79.2014 15.1192C79.3532 14.3101 79.5376 13.4693 79.7437 12.5888C79.9498 11.7083 80.1721 10.8357 80.4107 9.97108H79.3478Z" fill="#FED136"/>
<path d="M91.5928 9.51101C91.5787 9.88667 91.5369 10.259 91.4681 10.6215C91.4031 10.9777 91.3179 11.3253 91.2132 11.6607C91.1264 11.9445 91.0152 12.2111 90.8825 12.4539C90.8471 12.5374 90.7997 12.6084 90.7434 12.6618C90.6872 12.7153 90.6235 12.75 90.5571 12.7633C90.4161 12.7633 90.3347 12.6047 90.3076 12.3429C90.3142 12.2498 90.3306 12.1588 90.3564 12.0732C90.389 11.9542 90.4215 11.8193 90.4595 11.6686C90.4974 11.5179 90.5354 11.3672 90.5679 11.2165C90.5975 11.0913 90.614 10.9602 90.6167 10.8278C90.6208 10.5926 90.5774 10.3608 90.492 10.1615C90.4555 10.08 90.4056 10.0133 90.3468 9.96755C90.2881 9.92179 90.2224 9.89845 90.1558 9.8997C89.6406 9.8997 89.2502 10.3677 88.9844 11.2958C88.673 12.6156 88.5368 14.0103 88.5831 15.4048C88.5729 15.5154 88.5729 15.6274 88.5831 15.738H89.928C89.9364 15.8115 89.9364 15.8866 89.928 15.9601C89.9336 16.0253 89.9297 16.0915 89.9166 16.1544C89.9035 16.2172 89.8816 16.2754 89.8521 16.325L89.1525 16.5629C89.0178 16.61 88.8855 16.6709 88.7567 16.7454C88.6902 16.7785 88.6331 16.8426 88.594 16.9278C88.575 17.0123 88.5658 17.1007 88.5669 17.1896C88.5669 17.3403 88.5669 17.491 88.5669 17.6418C88.5669 17.7925 88.5669 17.9749 88.5669 18.197C88.6117 19.5717 88.2999 20.9203 87.6938 21.9729C87.061 22.9643 86.1903 23.5586 85.2643 23.6308C85.076 23.6044 84.8924 23.5292 84.722 23.4086C84.5286 23.2703 84.3466 23.1 84.1797 22.901C84.0095 22.7011 83.8581 22.4691 83.7296 22.2108C83.6071 21.9727 83.5153 21.7039 83.4585 21.4176C83.4575 20.7079 83.563 20.0066 83.7676 19.3631C83.9706 18.7185 84.2538 18.1348 84.6027 17.6418C84.9658 17.1298 85.3881 16.7162 85.85 16.4202C86.3443 16.1056 86.8782 15.9462 87.4172 15.9521C87.4175 15.4884 87.3848 15.0258 87.3196 14.5719C87.2545 14.1198 87.1895 13.6835 87.119 13.2631C87.0485 12.8426 86.978 12.4222 86.9183 12.0177C86.8541 11.6253 86.8214 11.2233 86.8207 10.8199C86.8223 10.3019 86.8942 9.78964 87.0322 9.31269C87.1667 8.8169 87.3493 8.35204 87.5745 7.93245C87.8012 7.51061 88.0721 7.14384 88.3771 6.84571C88.6686 6.55556 88.9939 6.34586 89.3369 6.22697C89.5368 6.34096 89.7206 6.50767 89.8792 6.71879C90.1243 7.0027 90.3579 7.30729 90.5788 7.63102C90.7993 7.95054 91.0041 8.29249 91.1916 8.6543C91.3638 8.89695 91.5003 9.18847 91.5928 9.51101V9.51101ZM85.2589 22.2902C85.5776 22.0973 85.8726 21.8293 86.132 21.4969C86.6818 20.7808 87.0979 19.8718 87.3413 18.8554C87.4613 18.3777 87.5237 17.8731 87.5257 17.3641C87.2214 17.4483 86.9329 17.6268 86.6797 17.8877C86.06 18.4817 85.5348 19.2635 85.1396 20.1801C84.9821 20.5135 84.8885 20.9024 84.8685 21.3065C84.8722 21.5051 84.9099 21.6992 84.9781 21.871C85.0463 22.0428 85.1429 22.1869 85.2589 22.2902V22.2902Z" fill="#FED136"/>
<path d="M92.7315 9.97108C92.638 9.75504 92.5787 9.5111 92.558 9.25716C92.5099 8.94733 92.4845 8.6309 92.4821 8.3132C92.7993 8.39086 93.1203 8.43065 93.4419 8.43219H94.2879C94.4777 7.87692 94.6838 7.32165 94.9115 6.77431C95.1393 6.22697 95.3508 5.72722 95.5623 5.27508C95.7456 4.87493 95.9448 4.49087 96.1588 4.12487C96.282 3.89377 96.4261 3.68829 96.5872 3.51407C96.7535 3.52089 96.9189 3.55279 97.0807 3.60926C97.2759 3.68065 97.4766 3.75998 97.6826 3.8631C97.8887 3.96622 98.0731 4.07728 98.2249 4.18833C98.3538 4.26248 98.4702 4.37608 98.5666 4.52149C98.187 5.23541 97.8562 5.88587 97.5796 6.48874C97.303 7.09161 97.0102 7.78966 96.6903 8.56704H97.4657C97.7324 8.56773 97.9988 8.54122 98.2629 8.48772C98.3311 8.58552 98.3831 8.70493 98.4147 8.83675C98.4532 8.97539 98.4734 9.12341 98.4744 9.27303C97.7422 9.65391 96.9682 9.83407 96.1914 9.8045C95.866 10.7088 95.584 11.6052 95.3345 12.4936C95.0851 13.382 94.8736 14.2467 94.7001 15.0716C94.5358 15.8371 94.4018 16.6158 94.2988 17.4038C94.2072 18.0539 94.1581 18.7153 94.1523 19.379C94.1523 20.2039 94.3638 20.664 94.7868 20.7592C95.1587 20.6845 95.523 20.5433 95.8714 20.3388C96.2044 20.1444 96.5153 19.8769 96.7933 19.5456C96.8558 19.6752 96.9017 19.8203 96.9289 19.9739C96.814 20.1904 96.681 20.3849 96.533 20.553C96.3401 20.7906 96.1372 21.0105 95.9256 21.2114C95.7235 21.4119 95.5135 21.5947 95.2966 21.7587C95.152 21.8732 94.9967 21.9561 94.8356 22.0046C94.5066 22.0007 94.181 21.9065 93.8758 21.727C93.5652 21.5475 93.2717 21.3103 93.0027 21.021C92.7527 20.7619 92.5345 20.4428 92.3574 20.077C92.2016 19.7837 92.1141 19.4251 92.1079 19.0537C92.1173 18.4838 92.1591 17.916 92.2326 17.3562C92.314 16.6661 92.4333 15.9284 92.5851 15.1192C92.737 14.3101 92.9213 13.4693 93.1274 12.5888C93.3335 11.7083 93.5558 10.8357 93.7944 9.97108H92.7315Z" fill="#FED136"/>
<path d="M97.9105 20.1643C97.9755 19.6249 98.084 18.9109 98.2467 18.0225C98.4094 17.1341 98.5937 16.1822 98.789 15.1827C98.9842 14.1832 99.2391 13.1758 99.4831 12.1604C99.7271 11.1451 99.9603 10.2408 100.194 9.43961C100.323 8.97337 100.469 8.51789 100.633 8.07523C100.751 7.78624 100.893 7.51979 101.056 7.28198C101.24 7.32577 101.421 7.39211 101.598 7.48029C101.784 7.57216 101.965 7.6835 102.14 7.81346C102.306 7.93447 102.468 8.06955 102.623 8.21801C102.743 8.33381 102.853 8.47252 102.948 8.6305C102.588 9.25502 102.282 9.94245 102.037 10.6771C101.745 11.6143 101.495 12.5789 101.289 13.5645C101.983 12.6681 102.59 11.8035 103.122 10.9785C103.671 10.1245 104.17 9.20364 104.613 8.22594C104.734 8.1197 104.874 8.07246 105.014 8.09109C105.19 8.08873 105.364 8.13169 105.53 8.21801C105.67 8.27072 105.793 8.39437 105.877 8.56704C105.653 9.41797 105.535 10.3207 105.53 11.2323C105.503 11.8729 105.591 12.5127 105.785 13.0885C105.721 13.3214 105.634 13.5383 105.524 13.7311C105.36 14.0503 105.179 14.35 104.982 14.6274C104.274 14.0769 103.734 13.1564 103.469 12.0494C102.933 12.6085 102.426 13.2235 101.951 13.8897C101.533 14.4755 101.169 15.1366 100.866 15.857C100.545 16.6343 100.285 17.4618 100.09 18.3239C99.879 19.26 99.6783 20.3785 99.4831 21.6714C99.3414 21.6339 99.2031 21.5727 99.071 21.489C98.7396 21.2742 98.431 20.991 98.1545 20.6482C98.0486 20.5167 97.965 20.3511 97.9105 20.1643V20.1643Z" fill="#FED136"/>
<path d="M112.731 9.38408C112.883 9.38892 113.035 9.42088 113.181 9.47927C113.344 9.54197 113.502 9.62696 113.653 9.73311C113.778 9.82215 113.897 9.93122 114.006 10.0583C114.103 10.1694 114.152 10.2725 114.152 10.3677C113.897 11.1609 113.659 11.9542 113.442 12.7474C113.225 13.5407 113.04 14.3339 112.899 15.0399C112.756 15.7122 112.639 16.3954 112.547 17.0865C112.469 17.6319 112.427 18.1871 112.422 18.7444C112.414 19.184 112.453 19.6228 112.536 20.0453C112.594 20.3571 112.732 20.6243 112.921 20.7909C112.737 20.9597 112.536 21.083 112.325 21.1558C112.113 21.2442 111.894 21.2922 111.674 21.2986C110.98 21.2986 110.638 20.6085 110.638 19.2203C110.708 17.7108 110.953 16.2298 111.365 14.8416C111.114 15.6684 110.819 16.4643 110.481 17.2213C110.175 17.9217 109.836 18.5896 109.467 19.2203C109.155 19.7758 108.798 20.2739 108.404 20.7037C108.115 21.0193 107.784 21.2435 107.433 21.3621C107.201 21.3631 106.974 21.2758 106.772 21.1089C106.57 20.942 106.402 20.7012 106.283 20.4102C105.973 19.7019 105.818 18.8715 105.839 18.0304C105.85 16.8903 106.007 15.7633 106.3 14.7068C106.601 13.5583 106.998 12.4686 107.482 11.4624C107.921 10.5301 108.447 9.69177 109.044 8.97159C109.489 8.3692 110.065 8.01295 110.671 7.96417C110.827 8.04371 110.973 8.15883 111.104 8.30527C111.269 8.48082 111.424 8.67724 111.565 8.89227C111.704 9.10211 111.83 9.3305 111.94 9.57446C112.025 9.7556 112.084 9.96092 112.113 10.1773C111.537 10.3109 110.994 10.6577 110.535 11.1847C109.974 11.8249 109.476 12.5749 109.055 13.4138C108.616 14.2733 108.252 15.2084 107.97 16.1981C107.705 17.0738 107.562 18.0173 107.547 18.9744C107.534 19.1149 107.554 19.2577 107.603 19.3799C107.652 19.5021 107.728 19.5967 107.818 19.6487C108.333 19.3831 108.781 18.8965 109.103 18.2526C109.766 17.0708 110.357 15.8075 110.871 14.4767L111.3 13.3582C111.462 12.9457 111.625 12.5095 111.793 12.0652L112.281 10.7009C112.438 10.2566 112.59 9.81243 112.731 9.38408Z" fill="#FED136"/>
<path d="M113.729 30.0243C113.55 29.9529 113.447 29.6673 113.42 29.1835C113.367 28.898 113.332 28.6058 113.317 28.3109C113.317 27.9777 113.29 27.589 113.29 27.1607C113.302 26.6274 113.346 26.0967 113.42 25.5742C113.512 24.892 113.637 24.1226 113.8 23.2579C113.962 22.3933 114.152 21.4652 114.385 20.4657C114.618 19.4662 114.868 18.4509 115.15 17.4196C115.497 16.1267 115.795 15.0399 116.055 14.0642C116.316 13.0885 116.522 12.2953 116.695 11.6052C116.869 10.915 117.01 10.3439 117.118 9.89176C117.227 9.43961 117.314 9.09851 117.379 8.74155C117.443 8.47042 117.519 8.20549 117.606 7.94831C117.714 7.61687 117.834 7.29385 117.964 6.98055C118.094 6.65532 118.235 6.34596 118.376 6.05245C118.488 5.81277 118.617 5.59194 118.762 5.39406C119.196 5.48342 119.62 5.65404 120.025 5.90174C120.308 6.0324 120.561 6.2738 120.757 6.59979C120.523 6.94463 120.318 7.32794 120.144 7.74207C119.9 8.2849 119.676 8.84625 119.472 9.42374C119.251 10.0324 119.052 10.6572 118.875 11.2958C118.717 11.8429 118.582 12.4047 118.474 12.9775C118.622 12.6127 118.789 12.2653 118.973 11.9383C119.174 11.5655 119.515 11.0499 119.911 10.3915C120.312 9.77215 120.76 9.2213 121.245 8.74949C121.565 8.41951 121.94 8.22216 122.33 8.17835C122.765 8.14903 123.193 8.35834 123.528 8.76535C123.681 8.94873 123.802 9.18053 123.884 9.44309C123.966 9.70565 124.005 9.99204 124 10.2804C123.999 11.6439 123.843 12.9976 123.539 14.2863C123.242 15.5811 122.794 16.7913 122.216 17.8639C121.993 18.273 121.744 18.6501 121.473 18.9903C121.185 19.358 120.877 19.6897 120.551 19.9818C120.256 20.2588 119.941 20.4901 119.613 20.672C119.35 20.8258 119.071 20.9117 118.789 20.9258C118.577 20.9331 118.367 20.8592 118.181 20.7116C118.026 20.6048 117.902 20.4225 117.829 20.196C118.374 19.7069 118.866 19.0998 119.288 18.3953C119.786 17.58 120.225 16.6923 120.6 15.7459C121.015 14.7104 121.369 13.625 121.657 12.5015C121.954 11.3528 122.182 10.1692 122.341 8.96366C121.877 9.31215 121.436 9.721 121.023 10.1853C120.583 10.6876 120.187 11.2685 119.846 11.9145C119.385 12.7078 119.022 13.3979 118.762 13.9056C118.501 14.4133 118.273 14.8416 118.1 15.1986C117.943 15.5139 117.802 15.8453 117.677 16.1901C117.568 16.4995 117.449 16.8802 117.324 17.3324C117.145 17.9273 116.934 18.7206 116.701 19.7121C116.468 20.7037 116.218 21.7904 115.969 23.012C115.719 24.2336 115.47 25.5266 115.22 26.8989C114.971 28.2712 114.732 29.6515 114.499 31.0159C114.419 30.986 114.345 30.9297 114.282 30.8514C114.219 30.773 114.169 30.6746 114.136 30.5637C114.033 30.3971 113.957 30.2781 113.913 30.1988C113.863 30.1188 113.8 30.0587 113.729 30.0243V30.0243Z" fill="#FED136"/>
</g>
<defs>
<clipPath id="clip0">
<rect width="124" height="31" fill="white"/>
</clipPath>
</defs>
</svg>
